# xmcd CD database file
#
# Track frame offsets:
#	150
#	30690
#	59320
#	116637
#	134382
#	160800
#	180627
#	216325
#
# Disc length: 3103 seconds
#
# Revision: 1
# Processed by: cddbd v1.5.2PL0 Copyright (c) Steve Scherf et al.
# Submitted via: CDex 2.23
#
DISCID=700c1d08
DTITLE=Dan Gibson - Solitudes - Forest Piano
DYEAR=1996
DGENRE=New Age
TTITLE0=A Path to Solitude
TTITLE1=Beauty Abounds
TTITLE2=Moody Afternoon
TTITLE3=Ancient Stand
TTITLE4=Summer Sublime
TTITLE5=Chasing the Clouds
TTITLE6=Dreaming by the Stream
TTITLE7=Hymn to the Old Growth
EXTD=YEAR: 1996
EXTT0=
EXTT1=
EXTT2=
EXTT3=
EXTT4=
EXTT5=
EXTT6=
EXTT7=
PLAYORDER=
